<svg xmlns="http://www.w3.org/2000/svg" width="56.13" height="79.228" viewBox="0 0 56.13 79.228">
  <g id="html-5-logo-svgrepo-com" transform="translate(-0.445)">
    <path id="Path_20" data-name="Path 20" d="M56.575,70.766l-5.114,57.285-22.986,6.372L5.553,128.06.445,70.766h56.13Z" transform="translate(0 -55.196)" fill="#e44d26"/>
    <path id="Path_21" data-name="Path 21" d="M128,146.159l18.574-5.149,4.37-48.953H128Z" transform="translate(-99.49 -71.802)" fill="#f16529"/>
    <path id="Path_22" data-name="Path 22" d="M55.6,131.022h9.941V124H47.917l.168,1.885,1.727,19.364H65.537v-7.027h-9.3Zm1.584,17.736H50.126l.984,11.033,14.394,4,.032-.009v-7.311l-.031.008-7.826-2.113Z" transform="translate(-37.027 -96.713)" fill="#ebebeb"/>
    <path id="Path_23" data-name="Path 23" d="M24.18,0h3.571V3.528h3.267V0h3.571V10.684H31.018V7.106H27.751v3.578H24.18V0Zm15.1,3.543H36.141V0H46V3.543H42.856v7.141H39.285V3.543h0ZM47.566,0H51.29l2.29,3.754L55.869,0h3.725V10.684H56.037v-5.3l-2.457,3.8h-.062l-2.458-3.8v5.3H47.566Zm13.8,0h3.572V7.153h5.022v3.531H61.37V0Z" transform="translate(-18.513)"/>
    <path id="Path_24" data-name="Path 24" d="M127.889,145.245h8.653l-.816,9.113-7.837,2.115v7.311l14.406-3.992.106-1.187,1.652-18.5.171-1.887H127.889Zm0-14.24v.017h16.973l.141-1.579.32-3.562.168-1.885h-17.6V131Z" transform="translate(-99.403 -96.713)" fill="#fff"/>
  </g>
</svg>
