<svg id="javascript-svgrepo-com" xmlns="http://www.w3.org/2000/svg" width="62.112" height="62.112" viewBox="0 0 62.112 62.112">
  <path id="Path_28" data-name="Path 28" d="M0,0H62.112V62.112H0Z" fill="#f7df1e"/>
  <path id="Path_29" data-name="Path 29" d="M67.311,140.919l4.753-2.877c.917,1.626,1.751,3,3.752,3,1.918,0,3.127-.75,3.127-3.669V117.529h5.837v19.929c0,6.046-3.544,8.8-8.714,8.8a9.059,9.059,0,0,1-8.756-5.337" transform="translate(-50.98 -89.014)"/>
  <path id="Path_30" data-name="Path 30" d="M152.381,139.251l4.753-2.752c1.251,2.043,2.877,3.544,5.754,3.544,2.419,0,3.961-1.209,3.961-2.877,0-2-1.584-2.71-4.253-3.877l-1.459-.626c-4.211-1.792-7-4.044-7-8.8,0-4.378,3.335-7.713,8.547-7.713,3.711,0,6.379,1.293,8.3,4.67l-4.545,2.918c-1-1.793-2.084-2.5-3.752-2.5a2.54,2.54,0,0,0-2.794,2.5c0,1.751,1.084,2.46,3.585,3.544l1.459.625c4.962,2.126,7.755,4.294,7.755,9.172,0,5.254-4.128,8.13-9.673,8.13-5.42,0-8.922-2.585-10.632-5.962" transform="translate(-115.41 -87.972)"/>
</svg>
