<svg xmlns="http://www.w3.org/2000/svg" width="74.478" height="64.548" viewBox="0 0 74.478 64.548">
  <g id="react-svgrepo-com" transform="translate(-1 -3)">
    <path id="Path_31" data-name="Path 31" d="M26.622,19.827a6.654,6.654,0,0,0-13.3,0,6.654,6.654,0,0,0,13.3,0Z" transform="translate(18.267 15.387)" fill="#53c1de"/>
    <path id="Path_32" data-name="Path 32" d="M59.839,23.242c1.4-5.534,3.17-15.795-3.054-19.274C50.591.5,42.53,7.142,38.274,11.126,34.03,7.182,25.742.573,19.524,4.063,13.332,7.538,15.242,17.63,16.677,23.2,10.9,24.788,1,28.214,1,35.214c0,6.98,9.891,10.707,15.633,12.3-1.441,5.6-3.255,15.546,2.945,19.014,6.241,3.489,14.5-2.962,18.8-6.99,4.284,4.007,12.267,10.5,18.463,7.024,6.215-3.488,4.6-13.612,3.161-19.213,5.566-1.593,15.478-5.239,15.478-12.132C75.478,28.282,65.524,24.828,59.839,23.242Zm-.706,21.135a71.128,71.128,0,0,0-3.771-9.148,71.066,71.066,0,0,0,3.625-9.015c4.168,1.172,13.31,3.849,13.31,9C72.3,40.413,63.524,43.116,59.133,44.378ZM55.245,63.889c-4.623,2.594-11.489-3.616-14.653-6.567a72.87,72.87,0,0,0,6.243-7.686,76.4,76.4,0,0,0,10.087-1.507C57.933,52.09,59.888,61.283,55.245,63.889Zm-34.077-.037c-4.623-2.585-2.51-11.461-1.45-15.585a76.971,76.971,0,0,0,10.037,1.409,75.577,75.577,0,0,0,6.393,7.659C33.461,59.854,25.812,66.448,21.168,63.852ZM4.181,35.214c0-5.218,9.088-7.876,13.35-9.045a72.633,72.633,0,0,0,3.63,9.12,73.706,73.706,0,0,0-3.675,9.25C13.422,43.411,4.181,40.436,4.181,35.214ZM21.118,6.733c4.642-2.605,11.845,3.74,14.926,6.6A74.406,74.406,0,0,0,29.7,20.941a80,80,0,0,0-9.938,1.5C18.6,17.947,16.481,9.335,21.118,6.733ZM49.111,24.294c2.376.291,4.653.678,6.791,1.151a64.512,64.512,0,0,1-2.384,6.218Q51.47,27.894,49.111,24.294ZM38.275,15.532a66.5,66.5,0,0,1,4.383,5.13q-4.4-.2-8.8,0C35.3,18.81,36.784,17.092,38.275,15.532ZM22.987,31.66a66.742,66.742,0,0,1-2.367-6.248c2.125-.461,4.391-.838,6.752-1.124Q25,27.872,22.987,31.66Zm4.453,14.7C25,46.1,22.7,45.739,20.577,45.291a67.867,67.867,0,0,1,2.414-6.375Q25.032,42.738,27.441,46.361Zm10.922,8.753c-1.508-1.578-3.012-3.323-4.481-5.2,2.949.112,5.9.112,8.853-.015A66.067,66.067,0,0,1,38.363,55.114ZM53.549,38.8a64.317,64.317,0,0,1,2.5,6.352A69.44,69.44,0,0,1,49.1,46.305C50.689,43.866,52.179,41.365,53.549,38.8ZM45.06,46.679A102.994,102.994,0,0,1,31.5,46.7a86.7,86.7,0,0,1-6.818-11.417,86.663,86.663,0,0,1,6.779-11.4,92.533,92.533,0,0,1,13.576,0,97.163,97.163,0,0,1,6.8,11.349A97.184,97.184,0,0,1,45.06,46.679ZM55.2,6.641c4.643,2.6,2.576,11.819,1.562,15.829A78.443,78.443,0,0,0,46.8,20.945a72.935,72.935,0,0,0-6.3-7.618C43.625,10.409,50.6,4.07,55.2,6.641Z" transform="translate(0 0)" fill="#53c1de" fill-rule="evenodd"/>
  </g>
</svg>
