<svg xmlns="http://www.w3.org/2000/svg" width="74.478" height="44.687" viewBox="0 0 74.478 44.687">
  <path id="tailwind-svgrepo-com" d="M20.62,23Q24.343,8.1,39.239,8.1C54.135,8.1,56,19.272,63.445,21.134Q70.892,23,76.478,15.548q-3.724,14.9-18.62,14.9c-14.9,0-16.758-11.172-24.205-13.034Q26.205,15.548,20.62,23ZM2,45.339q3.724-14.9,18.62-14.9c14.9,0,16.758,11.172,24.205,13.034q7.448,1.862,13.034-5.586-3.724,14.9-18.62,14.9c-14.9,0-16.758-11.172-24.205-13.034Q7.586,37.891,2,45.339Z" transform="translate(-2 -8.1)" fill="#44a8b3"/>
</svg>
